{
  "title": "Mission.Impossible.5-Rogue.Nation.2015.HDTS.XVID.AC3.HQ.Hive-CM8",
  "uid": 12183409,
  "size": 1781460209,
  "categoryP": "video",
  "categoryS": "movies",
  "magnet": "?xt=urn:btih:0c8e359f97aaf92c5a9581e7101f0817423f50c5&amp;dn=Mission.Impossible.5-Rogue.Nation.2015.HDTS.XVID.AC3.HQ.Hive-CM8&amp;tr=udp%3A%2F%2Ftracker.openbittorrent.com%3A80&amp;tr=udp%3A%2F%2Fopen.demonii.com%3A1337&amp;tr=udp%3A%2F%2Ftracker.coppersurfer.tk%3A6969&amp;tr=udp%3A%2F%2Fexodus.desync.com%3A6969",
  "seeders": 75,
  "leechers": 19,
  "uploader": "xxxlavalxxx",
  "files": 5,
  "time": 1438504550,
  "description": " &lt;a href=&quot;http://extraimago.com/image/OkN&quot; rel=&quot;nofollow&quot; target=&quot;_NEW&quot;&gt;http://extraimago.com/image/OkN&lt;/a&gt;\n &lt;a href=&quot;\nhttp://www.imdb.com/title/tt2381249/&quot; rel=&quot;nofollow&quot; target=&quot;_NEW&quot;&gt;\nhttp://www.imdb.com/title/tt2381249/&lt;/a&gt;\n\n\nEthan and team take on their most impossible mission yet, eradicating the Syndicate - an International rogue organization as highly skilled as they are, committed to destroying the IMF.\n\nDirector: Christopher McQuarrie\nWriters: Christopher McQuarrie (screenplay), Christopher McQuarrie (story)\nStars: Tom Cruise, Rebecca Ferguson, Jeremy Renner\nGenres: Action | Adventure | Thriller\nCountry: USA\nLanguage: English\n\n\nMission.Impossible.5-Rogue.Nation.2015.HDTS.XVID.AC3.HQ.Hive-CM8\n\nThx Hive\n\nCM8 Doing It Right The First Time\n\nSources:\n\nVideo: Spanish Source DVD-R thx Izzy\nyep you guessed it vobs passed from a friend\n\nAudio: Sweet Line Big Thx to S4NDM4N\n\nNotes:\n\nmissing first 3min\n\nThe Perfect Day 1 Release! hot as hell\nHDCam had Telecine quality, cant be done any better, bow to the cammer - i do hope we see more of this cammer\nstraight recording, no problems in this video at all, straight recording,no focus problems,nothing too dark,all was bright enough\n\nPerfect Direct Line on Day 1, what more do you want, oh thats right haters hating for the sake of hating feel free to reencode anytime lol\n\nEncode:\n\nVideo is nearly untouched, only added slightly sharpness\nits not gonna get better than this\n\nAudio sweet direct line as usual nothing to do either, lipsynced audio in 5mins, fitted right on it\n\nwill do me till retail, no need for a web-dl on this unless you like subs\nenjoy\n\nVideo: 720x352 @bitrate 1700 2pass\nAudio: English Line Stereo 2.0\nSample: yes 2 included\n\nPS:\n\nStill need a decent Antman Video, the ones out arent worth it\n &lt;a href=&quot;\nhttp://www.imdb.com/title/tt2381249/&quot; rel=&quot;nofollow&quot; target=&quot;_NEW&quot;&gt;\nhttp://www.imdb.com/title/tt2381249/&lt;/a&gt;\n\nGeneral\nComplete name: Mission.Impossible.5-Rogue.Nation.2015.HDTS.XVID.AC3.HQ.Hive-CM8.avi\nFormat: AVI\nFormat/Info: Audio Video Interleave\nFile size: 1.64 GiB\nDuration: 1h 59mn\nOverall bit rate: 1 968 Kbps\nWriting application: Nandub v1.0rc2\nWriting library: Nandub build 1853/release\n\nVideo\nID: 0\nFormat: MPEG-4 Visual\nFormat profile: Advanced Simple@L5\nFormat settings, BVOP: 2\nFormat settings, QPel: Yes\nFormat settings, GMC: No warppoints\nFormat settings, Matrix: Default (H.263)\nMuxing mode: Packed bitstream\nCodec ID: XVID\nCodec ID/Hint: XviD\nDuration: 1h 59mn\nBit rate: 1 701 Kbps\nWidth: 720 pixels\nHeight: 352 pixels\nDisplay aspect ratio: 2.045\nFrame rate: 29.970 fps\nColor space: YUV\nChroma subsampling: 4:2:0\nBit depth: 8 bits\nScan type: Progressive\nCompression mode: Lossy\nBits/(Pixel*Frame): 0.224\nStream size: 1.42 GiB (86%)\nWriting library: XviD 1.2.1 (UTC 2008-12-04)\n\nAudio\nID: 1\nFormat: AC-3\nFormat/Info: Audio Coding 3\nMode extension: CM (complete main)\nFormat settings, Endianness: Big\nCodec ID: 2000\nDuration: 1h 59mn\nBit rate mode: Constant\nBit rate: 256 Kbps\nChannel(s): 2 channels\nChannel positions: Front: L R\nSampling rate: 48.0 KHz\nBit depth: 16 bits\nCompression mode: Lossy\nStream size: 219 MiB (13%)\nAlignment: Split accross interleaves\nInterleave, duration: 33 ms (1.00 video frame)\nInterleave, preload duration: 500 ms\n\n &lt;a href=&quot;\nhttp://extraimago.com/image/OkT&quot; rel=&quot;nofollow&quot; target=&quot;_NEW&quot;&gt;\nhttp://extraimago.com/image/OkT&lt;/a&gt; &lt;a href=&quot;\nhttp://extraimago.com/image/Okj&quot; rel=&quot;nofollow&quot; target=&quot;_NEW&quot;&gt;\nhttp://extraimago.com/image/Okj&lt;/a&gt; &lt;a href=&quot;\nhttp://extraimago.com/image/Okn&quot; rel=&quot;nofollow&quot; target=&quot;_NEW&quot;&gt;\nhttp://extraimago.com/image/Okn&lt;/a&gt; &lt;a href=&quot;\nhttp://extraimago.com/image/Oks&quot; rel=&quot;nofollow&quot; target=&quot;_NEW&quot;&gt;\nhttp://extraimago.com/image/Oks&lt;/a&gt; &lt;a href=&quot;\nhttp://extraimago.com/image/Ok7&quot; rel=&quot;nofollow&quot; target=&quot;_NEW&quot;&gt;\nhttp://extraimago.com/image/Ok7&lt;/a&gt; &lt;a href=&quot;\nhttp://extraimago.com/image/Okc&quot; rel=&quot;nofollow&quot; target=&quot;_NEW&quot;&gt;\nhttp://extraimago.com/image/Okc&lt;/a&gt; &lt;a href=&quot;\nhttp://extraimago.com/image/Ok1&quot; rel=&quot;nofollow&quot; target=&quot;_NEW&quot;&gt;\nhttp://extraimago.com/image/Ok1&lt;/a&gt; &lt;a href=&quot;\nhttp://extraimago.com/image/OkE&quot; rel=&quot;nofollow&quot; target=&quot;_NEW&quot;&gt;\nhttp://extraimago.com/image/OkE&lt;/a&gt;",
  "parsed": {
    "xt": "urn:btih:0c8e359f97aaf92c5a9581e7101f0817423f50c5",
    "dn": "Mission.Impossible.5-Rogue.Nation.2015.HDTS.XVID.AC3.HQ.Hive-CM8",
    "tr": [
      "udp://exodus.desync.com:6969",
      "udp://open.demonii.com:1337",
      "udp://tracker.coppersurfer.tk:6969",
      "udp://tracker.openbittorrent.com:80"
    ],
    "infoHash": "0c8e359f97aaf92c5a9581e7101f0817423f50c5",
    "infoHashBuffer": {
      "type": "Buffer",
      "data": [
        12,
        142,
        53,
        159,
        151,
        170,
        249,
        44,
        90,
        149,
        129,
        231,
        16,
        31,
        8,
        23,
        66,
        63,
        80,
        197
      ]
    },
    "name": "Mission.Impossible.5-Rogue.Nation.2015.HDTS.XVID.AC3.HQ.Hive-CM8",
    "announce": [
      "udp://exodus.desync.com:6969",
      "udp://open.demonii.com:1337",
      "udp://tracker.coppersurfer.tk:6969",
      "udp://tracker.openbittorrent.com:80"
    ],
    "urlList": []
  },
  "previous": 25,
  "peers": 4,
  "last_updated": "2016-12-26T16:01:49.002Z"
}